<svg xmlns="http://www.w3.org/2000/svg" viewBox="0 0 427.57 475"><defs><style>.cls-1{fill:#fff;}</style></defs><g id="Layer_2" data-name="Layer 2"><g id="OBJECTS"><path class="cls-1" d="M144.21,387.22V370.67q0-30.69,0-61.38c0-9.58,4.23-14.82,11.94-14.93,8-.11,12.88,5.35,12.91,14.92q.17,46.19.15,92.39c0,10.74-6,15.77-16.72,13.33-30-6.86-56.71-20.54-79.23-41.39C10,315-14.14,242.79,8.12,159.48,30.63,75.19,88.2,23,173.23,4.74c137.17-29.4,263.29,82,253.84,222.19a225.54,225.54,0,0,1-13.6,62.95c-4.09,11.13-15,13.6-22,5.34-3.92-4.64-3.65-9.69-1.43-14.86,9.71-22.63,13.21-46.36,13-70.84C402.11,96.88,301,10,189.46,26,93.89,39.71,22.39,120.86,25,215.64c2.12,76.46,37.86,133,107.39,166.93C135.91,384.27,139.65,385.44,144.21,387.22Z"/><path class="cls-1" d="M373.39,209.15c-.33,20.14-2.8,37-8.87,53.29-1.81,4.86-4.75,9.89-10.62,9.24-4.15-.45-9.65-2.47-11.57-5.61-2.09-3.41-2.08-9.4-.66-13.46a124.43,124.43,0,0,0,3.69-71.46C329.64,115.66,266.47,72.43,199.14,81,134.8,89.13,87.8,134.56,77.87,198.62c-1.14,7.31-.4,14.89-.77,22.34-.17,3.44-.2,7.16-1.54,10.19-2.39,5.38-7.2,7.5-13.07,6.71-5.55-.76-9.28-4.42-9.31-9.59-.09-12.9-1-26.15,1.57-38.64,12.55-62,48.81-105.19,108.64-125.1C222.83,44.75,278,56,324.63,98.94,357.33,129.09,372.63,167.62,373.39,209.15Z"/><path class="cls-1" d="M285.66,389.71l27.09-14.94c1.92-1.07,3.77-2.27,5.72-3.28,7.49-3.85,14-2.52,18,3.6,3.68,5.71,2.09,13.69-5.37,17.35-17.5,8.6-35.28,16.75-53.43,23.84-9.74,3.81-16.83-3.06-16.87-14.69-.06-20.22.08-40.45.11-60.68,0-19.57.25-39.14,0-58.7-.13-8.35,2.35-15,8.89-20.22,24.81-19.77,31.59-58.58,12.43-89.12-2.66-4.23-6.42-7.76-9.51-11.74-4.48-5.79-4.22-12.35.48-17.37,5.13-5.47,11.21-5.48,17.3.47a86.36,86.36,0,0,1,23.94,41.09c8.85,35.36,1.55,66.59-24.94,92.58-1.71,1.68-3.48,4.31-3.5,6.51-.26,33.42-.24,66.84-.28,100.26C285.65,385.75,285.66,386.84,285.66,389.71Z"/><path class="cls-1" d="M202,362.81q0-47.78,0-95.57c0-9.5,3.94-14.26,11.52-14.41,6.75-.14,11.84,4.14,12.62,10.89a80.75,80.75,0,0,1,.26,9.21q0,92.28-.11,184.55a27.09,27.09,0,0,1-2,10.81c-2.27,5-6.76,7.61-12.43,6.42-5.46-1.15-8.83-4.75-9.54-10.41a58.14,58.14,0,0,1-.22-7.24q0-47.12,0-94.25Z"/><path class="cls-1" d="M207.37,112a41.82,41.82,0,0,1,6.94,1.34c5.55,1.92,8.79,6,8.52,11.93s-3.86,9.82-9.63,11c-4.49.92-9.17.85-13.72,1.52-42,6.2-71.28,43-68.06,85.49.61,7.95-3.22,13.52-10,14.59-8,1.24-13.48-2.55-14.57-11.33-2.62-21,2.29-40.74,12.52-58.91C138.44,133.73,167.71,115.29,207.37,112Z"/><path class="cls-1" d="M257.18,193.81a13,13,0,0,1-1.56,15.39c-.87.93-4.29,2.45-5.33,2.8-3.68,1.23-6.17-1.06-10.18-2.52-2.37-.87-3.87-4-5.85-6.09a30.48,30.48,0,0,0-45.87,1.53c-.85,1-1.63,2.08-2.51,3.05-4.62,5.13-11.16,6.14-16.54,2.6-5.06-3.33-6.37-9.41-2.68-15.76,8-13.69,19.89-22,35.51-24.71,19.05-3.28,35.83,1.51,49.3,15.56A41.56,41.56,0,0,1,257.18,193.81Z"/></g></g></svg>